<?xml version="1.0" encoding="utf-8"?>
<!-- Generator: Adobe Illustrator 21.1.0, SVG Export Plug-In . SVG Version: 6.00 Build 0)  -->
<svg version="1.1" id="Capa_1" xmlns="http://www.w3.org/2000/svg" xmlns:xlink="http://www.w3.org/1999/xlink" x="0px" y="0px"
	 viewBox="0 0 530.1 1809.7" style="enable-background:new 0 0 530.1 1809.7;" xml:space="preserve">
<style type="text/css">
	.st0{clip-path:url(#SVGID_2_);}
	.st1{opacity:0.2;}
	.st2{fill:#FFFFFF;}
	.st3{fill:none;stroke:#FFFFFF;stroke-width:2.02;stroke-miterlimit:10;}
</style>
<title>Recurso 1smart</title>
<g id="Capa_2">
	<g id="Capa_1-2">
		<g>
			<defs>
				<rect id="SVGID_1_" x="1.5" y="0" width="603.1" height="1803.2"/>
			</defs>
			<clipPath id="SVGID_2_">
				<use xlink:href="#SVGID_1_"  style="overflow:visible;"/>
			</clipPath>
			<g class="st0">
				<g class="st1">
					
						<ellipse id="_Elipse_" transform="matrix(0.8864 -0.463 0.463 0.8864 -793.3609 209.8185)" class="st2" cx="30.8" cy="1721.1" rx="17" ry="17"/>
					
						<ellipse id="_Elipse_2" transform="matrix(0.8864 -0.463 0.463 0.8864 -658.8573 287.0247)" class="st2" cx="255.3" cy="1485.7" rx="17" ry="17"/>
					
						<ellipse id="_Elipse_3" transform="matrix(0.8864 -0.463 0.463 0.8864 -501.0012 308.0706)" class="st2" cx="377.1" cy="1174.7" rx="17" ry="17"/>
					
						<ellipse id="_Elipse_4" transform="matrix(0.8864 -0.463 0.463 0.8864 -341.0039 280.8721)" class="st2" cx="401.7" cy="835.1" rx="17" ry="17"/>
					
						<ellipse id="_Elipse_5" transform="matrix(0.8864 -0.463 0.463 0.8864 -218.03 208.1283)" class="st2" cx="315" cy="548.2" rx="17" ry="17"/>
					
						<ellipse id="_Elipse_6" transform="matrix(0.8864 -0.463 0.463 0.8864 -132.9604 86.811)" class="st2" cx="110.4" cy="314.3" rx="17" ry="17"/>
					
						<ellipse id="_Elipse_7" transform="matrix(0.8864 -0.463 0.463 0.8864 -77.6402 -46.2034)" class="st2" cx="-132.9" cy="135.1" rx="17" ry="17"/>
					
						<ellipse id="_Elipse_8" transform="matrix(0.8864 -0.463 0.463 0.8864 -72.5702 28.9218)" class="st2" cx="22.6" cy="162.3" rx="17" ry="17"/>
					
						<ellipse id="_Elipse_9" transform="matrix(0.8864 -0.463 0.463 0.8864 -141.5526 157.8362)" class="st2" cx="250.8" cy="367.3" rx="17" ry="17"/>
					
						<ellipse id="_Elipse_10" transform="matrix(0.8864 -0.463 0.463 0.8864 -265.4047 270.3177)" class="st2" cx="418" cy="675.8" rx="17" ry="17"/>
					
						<ellipse id="_Elipse_11" transform="matrix(0.8864 -0.463 0.463 0.8864 -410.7197 329.0414)" class="st2" cx="465" cy="1001.2" rx="17" ry="17"/>
					
						<ellipse id="_Elipse_12" transform="matrix(0.8864 -0.463 0.463 0.8864 -580.5353 333.6581)" class="st2" cx="389.5" cy="1349.5" rx="17" ry="17"/>
					
						<ellipse id="_Elipse_13" transform="matrix(0.8864 -0.463 0.463 0.8864 -742.3605 275.5477)" class="st2" cx="190.2" cy="1650.1" rx="17" ry="17"/>
					
						<ellipse id="_Elipse_14" transform="matrix(0.8864 -0.463 0.463 0.8864 -866.7623 167.8856)" class="st2" cx="-91.4" cy="1849.7" rx="17" ry="17"/>
					
						<ellipse id="_Elipse_15" transform="matrix(7.845910e-02 -0.9969 0.9969 7.845910e-02 -1701.3925 1724.3004)" class="st2" cx="82" cy="1782.4" rx="10.4" ry="10.3"/>
					
						<ellipse id="_Elipse_16" transform="matrix(7.828506e-02 -0.9969 0.9969 7.828506e-02 -1222.1827 1740.7661)" class="st2" cx="330.3" cy="1531.3" rx="10.4" ry="10.3"/>
					
						<ellipse id="_Elipse_17" transform="matrix(7.828506e-02 -0.9969 0.9969 7.828506e-02 -763.6398 1559.0616)" class="st2" cx="461.3" cy="1192.5" rx="10.3" ry="10.3"/>
					
						<ellipse id="_Elipse_18" transform="matrix(7.845910e-02 -0.9969 0.9969 7.845910e-02 -379.2068 1224.4537)" class="st2" cx="472.7" cy="817.3" rx="10.3" ry="10.3"/>
					
						<ellipse id="_Elipse_19" transform="matrix(7.974522e-02 -0.9968 0.9968 7.974522e-02 -164.3218 850.216)" class="st2" cx="378.3" cy="514.1" rx="10.4" ry="10.4"/>
					
						<ellipse id="_Elipse_20" transform="matrix(7.828506e-02 -0.9969 0.9969 7.828506e-02 -95.3535 369.2135)" class="st2" cx="152" cy="236.2" rx="10.4" ry="10.4"/>
					
						<ellipse id="_Elipse_21" transform="matrix(7.828506e-02 -0.9969 0.9969 7.828506e-02 -151.3898 -29.045)" class="st2" cx="-91.4" cy="67.3" rx="10.4" ry="10.3"/>
					
						<ellipse id="_Elipse_22" transform="matrix(0.8864 -0.463 0.463 0.8864 -811.6773 145.9991)" class="st2" cx="-108.4" cy="1726.5" rx="17" ry="17"/>
					
						<ellipse id="_Elipse_23" transform="matrix(0.8864 -0.463 0.463 0.8864 -722.9634 234.4367)" class="st2" cx="116.1" cy="1590" rx="17" ry="17"/>
					
						<ellipse id="_Elipse_24" transform="matrix(0.8864 -0.463 0.463 0.8864 -575.8408 262.6322)" class="st2" cx="247.1" cy="1304.4" rx="17" ry="17"/>
					
						<ellipse id="_Elipse_25" transform="matrix(0.8864 -0.463 0.463 0.8864 -424.3481 259.1271)" class="st2" cx="315.7" cy="994" rx="17" ry="17"/>
					
						<ellipse id="_Elipse_26" transform="matrix(0.8864 -0.463 0.463 0.8864 -294.1261 209.4064)" class="st2" cx="279.5" cy="703.9" rx="17" ry="17"/>
					
						<ellipse id="_Elipse_27" transform="matrix(0.8864 -0.463 0.463 0.8864 -213.2482 127.364)" class="st2" cx="152.8" cy="498.1" rx="17" ry="17"/>
					
						<ellipse id="_Elipse_28" transform="matrix(0.8864 -0.463 0.463 0.8864 -150.0822 6.7724)" class="st2" cx="-61.2" cy="309.1" rx="17" ry="17"/>
					
						<ellipse id="_Elipse_29" transform="matrix(0.8864 -0.463 0.463 0.8864 -697.0551 125.0008)" class="st2" cx="-93.9" cy="1482.5" rx="17" ry="17"/>
					
						<ellipse id="_Elipse_30" transform="matrix(0.8864 -0.463 0.463 0.8864 -612.0552 171.5604)" class="st2" cx="43.5" cy="1332.6" rx="17" ry="17"/>
					
						<ellipse id="_Elipse_31" transform="matrix(0.8864 -0.463 0.463 0.8864 -503.3273 181.7413)" class="st2" cx="118.6" cy="1116.2" rx="17" ry="17"/>
					
						<ellipse id="_Elipse_32" transform="matrix(0.8864 -0.463 0.463 0.8864 -380.257 180.0996)" class="st2" cx="176.8" cy="864.7" rx="17" ry="17"/>
					
						<ellipse id="_Elipse_33" transform="matrix(0.8864 -0.463 0.463 0.8864 -312.0051 101.4154)" class="st2" cx="50.6" cy="686.3" rx="17" ry="17"/>
					
						<ellipse id="_Elipse_34" transform="matrix(0.8864 -0.463 0.463 0.8864 -262.0223 21.0442)" class="st2" cx="-88.1" cy="544.3" rx="17" ry="17"/>
					
						<ellipse id="_Elipse_35" transform="matrix(0.8864 -0.463 0.463 0.8864 -604.1061 84.8749)" class="st2" cx="-129.1" cy="1273.1" rx="17" ry="17"/>
					
						<ellipse id="_Elipse_36" transform="matrix(0.8864 -0.463 0.463 0.8864 -531.4799 100.5996)" class="st2" cx="-60.8" cy="1133" rx="17" ry="17"/>
					
						<ellipse id="_Elipse_37" transform="matrix(0.8864 -0.463 0.463 0.8864 -452.5254 110.3369)" class="st2" cx="-1.5" cy="977" rx="17" ry="17"/>
					
						<ellipse id="_Elipse_38" transform="matrix(0.8864 -0.463 0.463 0.8864 -386.817 79.1327)" class="st2" cx="-32.2" cy="827.6" rx="17" ry="17"/>
					
						<ellipse id="_Elipse_39" transform="matrix(0.8864 -0.463 0.463 0.8864 -333.8146 21.6404)" class="st2" cx="-122.8" cy="690.9" rx="17" ry="17"/>
					<polyline id="_Trazado_" class="st3" points="-108.3,1726.5 30.8,1721.1 116.1,1590 255.3,1485.7 247.1,1304.4 377.1,1174.6 
						315.7,994 401.7,835.1 279.6,703.9 315,548.2 152.8,498.1 110.4,314.2 -61.2,309.1 -136.6,128 					"/>
					<polyline id="_Trazado_2" class="st3" points="-88.1,544.3 -122.8,690.8 50.6,686.3 -23.5,823 176.8,864.7 -1.5,977 
						118.6,1116.2 -60.8,1133 43.5,1332.6 -129.1,1273.1 -93.9,1482.5 					"/>
					<polyline id="_Trazado_3" class="st3" points="-61.2,309.1 -88.1,544.3 152.8,498.1 50.6,686.3 279.6,703.9 176.8,864.7 
						315.7,994 118.6,1116.2 247.1,1304.4 43.5,1332.6 116.1,1590 -93.9,1482.5 -93.2,1718.6 					"/>
					<path id="_Trazado_4" class="st3" d="M-32.2,827.6"/>
					<path id="_Trazado_5" class="st3" d="M-66.7,1136.1"/>
					<path id="_Trazado_6" class="st3" d="M82,1782.3c0,0,170.8-89.9,248.4-250.9c0,0,139.2-171.1,131-338.8
						c0,0,97-209.8,11.3-375.2c0,0,10-176.5-96.8-302.4c0,0-83.2-239.5-223.8-278.7c0,0-57.7-138.6-244.2-170.5"/>
					<polyline id="_Trazado_7" class="st3" points="-122.8,690.8 -32.2,827.6 -1.5,977 -60.8,1133 -129.1,1273.1 					"/>
					<polyline id="_Trazado_8" class="st3" points="-101.3,1497.5 230.3,1306.7 -60.8,1133 					"/>
					<polyline id="_Trazado_9" class="st3" points="-91.6,1716.3 242.3,1310.3 247.1,1304.4 176.8,864.7 152.8,498.1 					"/>
					<polyline id="_Trazado_10" class="st3" points="-108.3,1726.5 116.1,1590 247.1,1304.4 315.7,994 279.6,703.9 152.8,498.1 
						-61.2,309.1 					"/>
					<polyline id="_Trazado_11" class="st3" points="-93.9,1482.5 43.5,1332.6 118.6,1116.2 176.8,864.7 50.6,686.3 -88.1,544.3 
											"/>
					<polyline id="_Trazado_12" class="st3" points="30.8,1721.1 255.3,1485.7 377.1,1174.6 401.7,835.1 315,548.2 110.4,314.2 
						-132.9,135.1 					"/>
					<polyline id="_Trazado_13" class="st3" points="-91.3,1849.6 30.8,1721.1 190.1,1650.1 255.3,1485.7 389.5,1349.4 
						377.1,1174.6 465,1001.2 401.7,835.1 418,675.8 315,548.2 250.8,367.3 110.4,314.2 22.6,162.3 -132.9,135.1 					"/>
					<polyline id="_Trazado_14" class="st3" points="-91.3,1849.6 82,1782.3 190.1,1650.1 330.3,1531.3 389.5,1349.4 461.3,1192.5 
						465,1001.2 472.6,817.3 418,675.8 375.8,514.8 250.8,367.3 152,236.2 22.6,162.3 -92.2,65.7 					"/>
				</g>
			</g>
		</g>
	</g>
</g>
</svg>
